<svg xmlns="http://www.w3.org/2000/svg" version="1.1" width="94px" height="94px"
    style="shape-rendering:geometricPrecision; text-rendering:geometricPrecision; image-rendering:optimizeQuality; fill-rule:evenodd; clip-rule:evenodd"
    xmlns:xlink="http://www.w3.org/1999/xlink">
    <g>
        <path style="opacity:0.009" fill="#cffefd"
            d="M 41.5,5.5 C 44.6399,4.35916 47.9733,4.1925 51.5,5C 48.1832,5.49834 44.8499,5.66501 41.5,5.5 Z" />
    </g>
    <g>
        <path style="opacity:0.008" fill="#befefe"
            d="M 40.5,6.5 C 39.1266,6.65668 37.7932,6.49001 36.5,6C 38.0657,5.23502 39.3991,5.40168 40.5,6.5 Z" />
    </g>
    <g>
        <path style="opacity:0.004" fill="#9efdfd"
            d="M 52.5,6.5 C 53.6009,5.40168 54.9343,5.23502 56.5,6C 55.2068,6.49001 53.8734,6.65668 52.5,6.5 Z" />
    </g>
    <g>
        <path style="opacity:1" fill="#ccfdfd"
            d="M 40.5,6.5 C 44.5,6.5 48.5,6.5 52.5,6.5C 52.5,6.83333 52.5,7.16667 52.5,7.5C 43.031,7.7444 34.031,9.91107 25.5,14C 24.2899,15.0391 23.2899,16.2058 22.5,17.5C 19.0969,19.8998 16.4302,22.8998 14.5,26.5C 13.0937,26.9731 12.427,27.9731 12.5,29.5C 11.8333,31.1667 11.1667,32.8333 10.5,34.5C 9.83333,34.8333 9.16667,35.1667 8.5,35.5C 9.038,33.8828 9.37133,32.2161 9.5,30.5C 16.2982,17.9342 26.6315,9.93419 40.5,6.5 Z" />
    </g>
    <g>
        <path style="opacity:0.986" fill="#aafcfe"
            d="M 52.5,7.5 C 57.4655,7.82224 62.1321,9.15558 66.5,11.5C 66.5,11.8333 66.5,12.1667 66.5,12.5C 63.8333,11.8333 61.1667,11.1667 58.5,10.5C 56.1524,9.04832 53.4857,8.38165 50.5,8.5C 47.7954,8.31608 45.4621,8.98274 43.5,10.5C 35.8243,11.0585 28.8243,13.3919 22.5,17.5C 23.2899,16.2058 24.2899,15.0391 25.5,14C 34.031,9.91107 43.031,7.7444 52.5,7.5 Z" />
    </g>
    <g>
        <path style="opacity:0.016" fill="#92f0fc" d="M 66.5,10.5 C 67.8333,11.1667 67.8333,11.1667 66.5,10.5 Z" />
    </g>
    <g>
        <path style="opacity:0.999" fill="#98fcfe"
            d="M 43.5,10.5 C 39.7793,13.4043 35.446,14.7377 30.5,14.5C 30.5,15.5 30.5,16.5 30.5,17.5C 28.4357,17.687 26.4357,18.187 24.5,19C 20.7456,20.9187 17.4123,23.4187 14.5,26.5C 16.4302,22.8998 19.0969,19.8998 22.5,17.5C 28.8243,13.3919 35.8243,11.0585 43.5,10.5 Z" />
    </g>
    <g>
        <path style="opacity:1" fill="#87f7fe"
            d="M 58.5,10.5 C 54.2515,10.9528 50.2515,11.9528 46.5,13.5C 37.5095,15.7488 28.8428,18.9155 20.5,23C 18.6266,24.7038 16.9599,26.5372 15.5,28.5C 14.391,28.5569 13.391,28.8902 12.5,29.5C 12.427,27.9731 13.0937,26.9731 14.5,26.5C 17.4123,23.4187 20.7456,20.9187 24.5,19C 26.4357,18.187 28.4357,17.687 30.5,17.5C 30.5,16.5 30.5,15.5 30.5,14.5C 35.446,14.7377 39.7793,13.4043 43.5,10.5C 45.4621,8.98274 47.7954,8.31608 50.5,8.5C 53.4857,8.38165 56.1524,9.04832 58.5,10.5 Z" />
    </g>
    <g>
        <path style="opacity:1" fill="#74edfe"
            d="M 58.5,10.5 C 61.1667,11.1667 63.8333,11.8333 66.5,12.5C 68.0269,12.427 69.0269,13.0937 69.5,14.5C 68.5,14.5 67.5,14.5 66.5,14.5C 62.6795,13.7736 58.6795,13.7736 54.5,14.5C 50.5,15.1667 46.5,15.8333 42.5,16.5C 44.0764,15.8571 45.4097,14.8571 46.5,13.5C 50.2515,11.9528 54.2515,10.9528 58.5,10.5 Z" />
    </g>
    <g>
        <path style="opacity:1" fill="#5cdefd"
            d="M 66.5,14.5 C 67.5,14.5 68.5,14.5 69.5,14.5C 72.1092,15.4431 74.1092,17.1097 75.5,19.5C 73.5,19.1667 71.5,18.8333 69.5,18.5C 69.9175,17.7784 70.5842,17.2784 71.5,17C 65.4643,17.7068 59.4643,18.8735 53.5,20.5C 49.5,21.1667 45.5,21.8333 41.5,22.5C 49.5131,19.0751 57.8464,16.4085 66.5,14.5 Z" />
    </g>
    <g>
        <path style="opacity:1" fill="#77f0fe"
            d="M 46.5,13.5 C 45.4097,14.8571 44.0764,15.8571 42.5,16.5C 36.1543,17.9411 30.1543,20.1078 24.5,23C 21.4443,24.8556 18.4443,26.6889 15.5,28.5C 16.9599,26.5372 18.6266,24.7038 20.5,23C 28.8428,18.9155 37.5095,15.7488 46.5,13.5 Z" />
    </g>
    <g>
        <path style="opacity:1" fill="#5ee4fe"
            d="M 66.5,14.5 C 57.8464,16.4085 49.5131,19.0751 41.5,22.5C 40.8333,22.5 40.1667,22.5 39.5,22.5C 33.7632,23.9682 28.0966,25.6349 22.5,27.5C 23.7373,25.9032 25.404,24.7365 27.5,24C 36.5713,20.7004 45.5713,17.5337 54.5,14.5C 58.6795,13.7736 62.6795,13.7736 66.5,14.5 Z" />
    </g>
    <g>
        <path style="opacity:0.012" fill="#dafdfc" d="M 14.5,19.5 C 15.8333,20.1667 15.8333,20.1667 14.5,19.5 Z" />
    </g>
    <g>
        <path style="opacity:0.016" fill="#7adafe" d="M 78.5,20.5 C 77.8333,19.1667 77.8333,19.1667 78.5,20.5 Z" />
    </g>
    <g>
        <path style="opacity:0.004" fill="#9be0fd" d="M 78.5,20.5 C 79.8333,21.1667 79.8333,21.1667 78.5,20.5 Z" />
    </g>
    <g>
        <path style="opacity:1" fill="#67eafe"
            d="M 54.5,14.5 C 45.5713,17.5337 36.5713,20.7004 27.5,24C 25.404,24.7365 23.7373,25.9032 22.5,27.5C 18.0187,28.9754 14.0187,31.3088 10.5,34.5C 11.1667,32.8333 11.8333,31.1667 12.5,29.5C 13.391,28.8902 14.391,28.5569 15.5,28.5C 18.4443,26.6889 21.4443,24.8556 24.5,23C 30.1543,20.1078 36.1543,17.9411 42.5,16.5C 46.5,15.8333 50.5,15.1667 54.5,14.5 Z" />
    </g>
    <g>
        <path style="opacity:1" fill="#49d8fb"
            d="M 69.5,18.5 C 63.6345,20.8022 57.6345,22.8022 51.5,24.5C 46.7606,25.185 42.0939,26.185 37.5,27.5C 37.4701,26.5028 37.9701,25.8361 39,25.5C 44.1075,24.2987 48.9408,22.6321 53.5,20.5C 59.4643,18.8735 65.4643,17.7068 71.5,17C 70.5842,17.2784 69.9175,17.7784 69.5,18.5 Z" />
    </g>
    <g>
        <path style="opacity:1" fill="#54e3fd"
            d="M 39.5,22.5 C 32.2633,25.7506 24.9299,28.9173 17.5,32C 14.0142,33.996 10.6809,36.1627 7.5,38.5C 7.5,37.8333 7.5,37.1667 7.5,36.5C 8.16667,36.5 8.5,36.1667 8.5,35.5C 9.16667,35.1667 9.83333,34.8333 10.5,34.5C 14.0187,31.3088 18.0187,28.9754 22.5,27.5C 28.0966,25.6349 33.7632,23.9682 39.5,22.5 Z" />
    </g>
    <g>
        <path style="opacity:1" fill="#49d2f8"
            d="M 69.5,18.5 C 71.5,18.8333 73.5,19.1667 75.5,19.5C 76.1667,19.8333 76.8333,20.1667 77.5,20.5C 77.7376,22.4044 78.7376,23.7377 80.5,24.5C 80.5,25.1667 80.5,25.8333 80.5,26.5C 79.8333,26.1667 79.1667,25.8333 78.5,25.5C 77.3862,24.1147 76.3862,22.6147 75.5,21C 73.9343,20.235 72.6009,20.4017 71.5,21.5C 68.0834,23.3724 64.4168,24.3724 60.5,24.5C 57.4824,24.7038 54.4824,25.0371 51.5,25.5C 51.5,25.1667 51.5,24.8333 51.5,24.5C 57.6345,22.8022 63.6345,20.8022 69.5,18.5 Z" />
    </g>
    <g>
        <path style="opacity:0.012" fill="#61d0fb" d="M 80.5,23.5 C 81.8333,24.1667 81.8333,24.1667 80.5,23.5 Z" />
    </g>
    <g>
        <path style="opacity:1" fill="#3bd1f7"
            d="M 60.5,24.5 C 57.2597,26.951 53.5931,28.6176 49.5,29.5C 44.4583,30.2917 39.4583,31.2917 34.5,32.5C 35.1667,31.8333 35.8333,31.1667 36.5,30.5C 41.6629,29.0013 46.6629,27.3346 51.5,25.5C 54.4824,25.0371 57.4824,24.7038 60.5,24.5 Z" />
    </g>
    <g>
        <path style="opacity:1" fill="#40d7fa"
            d="M 51.5,24.5 C 51.5,24.8333 51.5,25.1667 51.5,25.5C 46.6629,27.3346 41.6629,29.0013 36.5,30.5C 31.4678,31.3414 26.4678,32.3414 21.5,33.5C 26.4927,31.0211 31.8261,29.0211 37.5,27.5C 42.0939,26.185 46.7606,25.185 51.5,24.5 Z" />
    </g>
    <g>
        <path style="opacity:1" fill="#36cbf4"
            d="M 71.5,21.5 C 72.4293,22.3149 73.4293,23.1482 74.5,24C 67.4527,26.5167 61.1193,30.0167 55.5,34.5C 54.391,34.5569 53.391,34.8902 52.5,35.5C 52.7214,34.2652 53.3881,33.2652 54.5,32.5C 54,32.1667 53.5,31.8333 53,31.5C 49.5532,32.4894 46.0532,33.1561 42.5,33.5C 44.964,32.4335 47.2974,31.1002 49.5,29.5C 53.5931,28.6176 57.2597,26.951 60.5,24.5C 64.4168,24.3724 68.0834,23.3724 71.5,21.5 Z" />
    </g>
    <g>
        <path style="opacity:1" fill="#48ddfd"
            d="M 53.5,20.5 C 48.9408,22.6321 44.1075,24.2987 39,25.5C 37.9701,25.8361 37.4701,26.5028 37.5,27.5C 31.8261,29.0211 26.4927,31.0211 21.5,33.5C 16.5811,35.2928 11.9144,37.6261 7.5,40.5C 7.5,39.8333 7.5,39.1667 7.5,38.5C 10.6809,36.1627 14.0142,33.996 17.5,32C 24.9299,28.9173 32.2633,25.7506 39.5,22.5C 40.1667,22.5 40.8333,22.5 41.5,22.5C 45.5,21.8333 49.5,21.1667 53.5,20.5 Z" />
    </g>
    <g>
        <path style="opacity:1" fill="#31c5f3"
            d="M 78.5,25.5 C 75.0417,28.5955 71.0417,30.9289 66.5,32.5C 62.7379,32.6911 59.0712,33.3578 55.5,34.5C 61.1193,30.0167 67.4527,26.5167 74.5,24C 73.4293,23.1482 72.4293,22.3149 71.5,21.5C 72.6009,20.4017 73.9343,20.235 75.5,21C 76.3862,22.6147 77.3862,24.1147 78.5,25.5 Z" />
    </g>
    <g>
        <path style="opacity:0.008" fill="#aafafd"
            d="M 9.5,30.5 C 8.47498,30.1034 8.30831,29.4368 9,28.5C 9.46434,29.0944 9.63101,29.7611 9.5,30.5 Z" />
    </g>
    <g>
        <path style="opacity:1" fill="#33d1f8"
            d="M 49.5,29.5 C 47.2974,31.1002 44.964,32.4335 42.5,33.5C 33.0689,36.9764 23.4022,39.6431 13.5,41.5C 11.6954,42.2371 10.0287,43.2371 8.5,44.5C 7.70245,44.0431 7.36912,43.3764 7.5,42.5C 15.757,37.2067 24.757,33.8734 34.5,32.5C 39.4583,31.2917 44.4583,30.2917 49.5,29.5 Z" />
    </g>
    <g>
        <path style="opacity:1" fill="#3ad6fb"
            d="M 36.5,30.5 C 35.8333,31.1667 35.1667,31.8333 34.5,32.5C 24.757,33.8734 15.757,37.2067 7.5,42.5C 7.5,41.8333 7.5,41.1667 7.5,40.5C 11.9144,37.6261 16.5811,35.2928 21.5,33.5C 26.4678,32.3414 31.4678,31.3414 36.5,30.5 Z" />
    </g>
    <g>
        <path style="opacity:1" fill="#31ccf5"
            d="M 52.5,35.5 C 51.5,34.1667 50.5,34.1667 49.5,35.5C 43.1963,37.8345 36.8629,39.3345 30.5,40C 32.8776,40.9745 32.5443,41.6411 29.5,42C 30.7375,42.2321 31.7375,42.7321 32.5,43.5C 30.7085,43.366 29.0418,43.6993 27.5,44.5C 27.5,43.5 27.5,42.5 27.5,41.5C 22.6248,41.8085 17.9581,41.8085 13.5,41.5C 23.4022,39.6431 33.0689,36.9764 42.5,33.5C 46.0532,33.1561 49.5532,32.4894 53,31.5C 53.5,31.8333 54,32.1667 54.5,32.5C 53.3881,33.2652 52.7214,34.2652 52.5,35.5 Z" />
    </g>
    <g>
        <path style="opacity:1" fill="#28c4f2"
            d="M 66.5,32.5 C 64.9301,34.9474 62.9301,36.9474 60.5,38.5C 55.0644,37.7932 50.0644,39.1265 45.5,42.5C 43.9153,41.9976 43.4153,40.9976 44,39.5C 46.167,38.5119 48.0003,37.1786 49.5,35.5C 50.5,34.1667 51.5,34.1667 52.5,35.5C 53.391,34.8902 54.391,34.5569 55.5,34.5C 59.0712,33.3578 62.7379,32.6911 66.5,32.5 Z" />
    </g>
    <g>
        <path style="opacity:1" fill="#29bef1"
            d="M 78.5,25.5 C 79.1667,25.8333 79.8333,26.1667 80.5,26.5C 81.3382,26.8417 81.6716,27.5084 81.5,28.5C 80.5041,28.5858 79.6708,28.2524 79,27.5C 76.0266,31.9736 72.8599,36.3069 69.5,40.5C 67.4565,41.0652 65.7898,42.0652 64.5,43.5C 64.1667,43.5 63.8333,43.5 63.5,43.5C 62.7375,42.7321 61.7375,42.2321 60.5,42C 61.1712,41.0138 61.1712,39.8471 60.5,38.5C 62.9301,36.9474 64.9301,34.9474 66.5,32.5C 71.0417,30.9289 75.0417,28.5955 78.5,25.5 Z" />
    </g>
    <g>
        <path style="opacity:0.016" fill="#7fedfd"
            d="M 7.5,36.5 C 7.16667,36.5 6.83333,36.5 6.5,36.5C 6.83333,32.5 7.16667,32.5 7.5,36.5 Z" />
    </g>
    <g>
        <path style="opacity:0.016" fill="#34b2f1"
            d="M 86.5,36.5 C 86.1667,36.5 85.8333,36.5 85.5,36.5C 85.8333,32.5 86.1667,32.5 86.5,36.5 Z" />
    </g>
    <g>
        <path style="opacity:1" fill="#27b8ef"
            d="M 81.5,28.5 C 83.0652,30.5093 84.0652,32.8427 84.5,35.5C 84.1667,35.5 83.8333,35.5 83.5,35.5C 82.6799,33.8599 81.8466,32.1932 81,30.5C 78.1627,35.5091 75.3293,40.5091 72.5,45.5C 70.8045,46.1744 69.1379,46.8411 67.5,47.5C 67.0679,46.2905 66.4013,45.2905 65.5,44.5C 64.8333,44.5 64.5,44.1667 64.5,43.5C 65.7898,42.0652 67.4565,41.0652 69.5,40.5C 72.8599,36.3069 76.0266,31.9736 79,27.5C 79.6708,28.2524 80.5041,28.5858 81.5,28.5 Z" />
    </g>
    <g>
        <path style="opacity:1" fill="#2cc6f2"
            d="M 49.5,35.5 C 48.0003,37.1786 46.167,38.5119 44,39.5C 43.4153,40.9976 43.9153,41.9976 45.5,42.5C 46.4916,42.3284 47.1583,42.6618 47.5,43.5C 43.745,43.5631 42.4116,45.2298 43.5,48.5C 42.8359,49.648 42.6692,50.9813 43,52.5C 41.6796,52.201 40.1796,52.0343 38.5,52C 37.6266,50.955 36.6266,50.1217 35.5,49.5C 35.7373,48.209 35.404,47.209 34.5,46.5C 34.573,44.9731 33.9063,43.9731 32.5,43.5C 31.7375,42.7321 30.7375,42.2321 29.5,42C 32.5443,41.6411 32.8776,40.9745 30.5,40C 36.8629,39.3345 43.1963,37.8345 49.5,35.5 Z" />
    </g>
    <g>
        <path style="opacity:1" fill="#26bff0"
            d="M 60.5,38.5 C 61.1712,39.8471 61.1712,41.0138 60.5,42C 61.7375,42.2321 62.7375,42.7321 63.5,43.5C 59.5,42.8333 57.8333,44.5 58.5,48.5C 60.06,53.0825 58.3933,54.5825 53.5,53C 52.4775,50.1509 51.1442,47.6509 49.5,45.5C 49.1667,44.5 48.5,43.8333 47.5,43.5C 47.1583,42.6618 46.4916,42.3284 45.5,42.5C 50.0644,39.1265 55.0644,37.7932 60.5,38.5 Z" />
    </g>
    <g>
        <path style="opacity:0.008" fill="#52e0fe"
            d="M 6.5,36.5 C 6.66018,38.1992 6.49351,39.8659 6,41.5C 5.22039,39.6131 5.38705,37.9464 6.5,36.5 Z" />
    </g>
    <g>
        <path style="opacity:1" fill="#1fb2ee"
            d="M 83.5,35.5 C 82.5041,35.4142 81.6708,35.7476 81,36.5C 79.9773,41.5871 77.4773,45.7538 73.5,49C 71.0106,49.9411 69.0106,49.4411 67.5,47.5C 69.1379,46.8411 70.8045,46.1744 72.5,45.5C 75.3293,40.5091 78.1627,35.5091 81,30.5C 81.8466,32.1932 82.6799,33.8599 83.5,35.5 Z" />
    </g>
    <g>
        <path style="opacity:0.008" fill="#1ea1ec"
            d="M 86.5,36.5 C 87.6291,38.6282 87.7958,40.9615 87,43.5C 86.5034,41.1902 86.3367,38.8568 86.5,36.5 Z" />
    </g>
    <g>
        <path style="opacity:1" fill="#2bcaf6"
            d="M 13.5,41.5 C 17.9581,41.8085 22.6248,41.8085 27.5,41.5C 27.5,42.5 27.5,43.5 27.5,44.5C 27.5,44.8333 27.5,45.1667 27.5,45.5C 27.1667,45.5 26.8333,45.5 26.5,45.5C 19.7562,44.1759 13.0896,44.5092 6.5,46.5C 6.23219,44.901 6.56552,43.5676 7.5,42.5C 7.36912,43.3764 7.70245,44.0431 8.5,44.5C 10.0287,43.2371 11.6954,42.2371 13.5,41.5 Z" />
    </g>
    <g>
        <path style="opacity:0.998" fill="#23c4f4"
            d="M 26.5,45.5 C 25.1196,48.31 22.7862,49.6433 19.5,49.5C 15.2015,48.7035 10.8682,48.3701 6.5,48.5C 6.5,47.8333 6.5,47.1667 6.5,46.5C 13.0896,44.5092 19.7562,44.1759 26.5,45.5 Z" />
    </g>
    <g>
        <path style="opacity:0.008" fill="#39c3f1"
            d="M 4.5,43.5 C 5.63406,45.9664 5.80073,48.633 5,51.5C 4.50258,48.854 4.33591,46.1873 4.5,43.5 Z" />
    </g>
    <g>
        <path style="opacity:1" fill="#1fa8ed"
            d="M 83.5,35.5 C 83.8333,35.5 84.1667,35.5 84.5,35.5C 84.5,36.1667 84.8333,36.5 85.5,36.5C 85.5,37.8333 85.5,39.1667 85.5,40.5C 82.0942,44.7688 78.7609,49.2688 75.5,54C 73.7412,54.7975 72.0745,54.6309 70.5,53.5C 68.3483,51.8381 66.6817,49.8381 65.5,47.5C 65.5,46.5 65.5,45.5 65.5,44.5C 66.4013,45.2905 67.0679,46.2905 67.5,47.5C 69.0106,49.4411 71.0106,49.9411 73.5,49C 77.4773,45.7538 79.9773,41.5871 81,36.5C 81.6708,35.7476 82.5041,35.4142 83.5,35.5 Z" />
    </g>
    <g>
        <path style="opacity:1" fill="#e4e1e8"
            d="M 32.5,43.5 C 33.9063,43.9731 34.573,44.9731 34.5,46.5C 34.5858,47.4959 34.2524,48.3292 33.5,49C 31.4024,49.6776 29.4024,49.5109 27.5,48.5C 27.5,47.5 27.5,46.5 27.5,45.5C 27.5,45.1667 27.5,44.8333 27.5,44.5C 29.0418,43.6993 30.7085,43.366 32.5,43.5 Z" />
    </g>
    <g>
        <path style="opacity:1" fill="#e6e1e7"
            d="M 47.5,43.5 C 48.5,43.8333 49.1667,44.5 49.5,45.5C 49.7709,47.3797 49.1042,48.713 47.5,49.5C 45.901,49.7678 44.5676,49.4345 43.5,48.5C 42.4116,45.2298 43.745,43.5631 47.5,43.5 Z" />
    </g>
    <g>
        <path style="opacity:1" fill="#e2dfe7"
            d="M 63.5,43.5 C 63.8333,43.5 64.1667,43.5 64.5,43.5C 64.5,44.1667 64.8333,44.5 65.5,44.5C 65.5,45.5 65.5,46.5 65.5,47.5C 65.1667,48.5 64.5,49.1667 63.5,49.5C 61.7085,49.634 60.0418,49.3007 58.5,48.5C 57.8333,44.5 59.5,42.8333 63.5,43.5 Z" />
    </g>
    <g>
        <path style="opacity:1" fill="#25bdf0"
            d="M 26.5,45.5 C 26.8333,45.5 27.1667,45.5 27.5,45.5C 27.5,46.5 27.5,47.5 27.5,48.5C 27.5569,49.609 27.8902,50.609 28.5,51.5C 28.5,52.1667 28.5,52.8333 28.5,53.5C 26.7571,54.0856 24.9238,54.4189 23,54.5C 18.3934,53.6184 13.8934,52.2851 9.5,50.5C 8.58362,50.5427 7.91695,50.8761 7.5,51.5C 7.5,51.8333 7.5,52.1667 7.5,52.5C 7.16667,52.5 6.83333,52.5 6.5,52.5C 6.5,51.1667 6.5,49.8333 6.5,48.5C 10.8682,48.3701 15.2015,48.7035 19.5,49.5C 22.7862,49.6433 25.1196,48.31 26.5,45.5 Z" />
    </g>
    <g>
        <path style="opacity:0.999" fill="#1ab8f0"
            d="M 7.5,51.5 C 7.91695,50.8761 8.58362,50.5427 9.5,50.5C 13.8934,52.2851 18.3934,53.6184 23,54.5C 24.9238,54.4189 26.7571,54.0856 28.5,53.5C 28.6567,54.8734 28.49,56.2068 28,57.5C 24.1209,58.2942 19.9542,57.7942 15.5,56C 12.9679,54.2347 10.3013,52.7347 7.5,51.5 Z" />
    </g>
    <g>
        <path style="opacity:1" fill="#229aec"
            d="M 85.5,40.5 C 85.5,41.8333 85.5,43.1667 85.5,44.5C 84.8333,45.1667 84.1667,45.8333 83.5,46.5C 80.7324,49.8416 78.0657,53.3416 75.5,57C 73.3451,58.3569 71.1785,58.5236 69,57.5C 66.828,59.0053 64.9947,60.8386 63.5,63C 60.8333,63.6667 58.1667,63.6667 55.5,63C 54.5842,62.7216 53.9175,62.2216 53.5,61.5C 55.0806,60.4209 56.7473,60.4209 58.5,61.5C 63.8726,59.9753 64.8726,56.9753 61.5,52.5C 61.3893,51.8826 61.056,51.3826 60.5,51C 61.7375,50.7679 62.7375,50.2679 63.5,49.5C 64.5,49.1667 65.1667,48.5 65.5,47.5C 66.6817,49.8381 68.3483,51.8381 70.5,53.5C 72.0745,54.6309 73.7412,54.7975 75.5,54C 78.7609,49.2688 82.0942,44.7688 85.5,40.5 Z" />
    </g>
    <g>
        <path style="opacity:0.008" fill="#2a84e5"
            d="M 86.5,56.5 C 86.3367,54.1432 86.5034,51.8098 87,49.5C 87.7958,52.0385 87.6291,54.3718 86.5,56.5 Z" />
    </g>
    <g>
        <path style="opacity:0.008" fill="#1fabeb"
            d="M 6.5,52.5 C 6.5,54.1667 6.5,55.8333 6.5,57.5C 5.16667,55.8333 5.16667,54.1667 6.5,52.5 Z" />
    </g>
    <g>
        <path style="opacity:1" fill="#25a6eb"
            d="M 49.5,45.5 C 51.1442,47.6509 52.4775,50.1509 53.5,53C 58.3933,54.5825 60.06,53.0825 58.5,48.5C 60.0418,49.3007 61.7085,49.634 63.5,49.5C 62.7375,50.2679 61.7375,50.7679 60.5,51C 61.056,51.3826 61.3893,51.8826 61.5,52.5C 61.541,58.7795 58.8743,60.1129 53.5,56.5C 52.8333,55.5 52.1667,54.5 51.5,53.5C 50.2638,54.2458 48.9305,54.5792 47.5,54.5C 47.9926,56.8056 48.3259,59.139 48.5,61.5C 41.1553,64.4921 36.1553,62.3254 33.5,55C 34.0442,54.2828 34.7109,53.7828 35.5,53.5C 35.8258,55.6607 36.8258,57.4941 38.5,59C 40.859,59.2078 43.0257,59.3744 45,59.5C 45.7772,56.5706 45.6105,53.7372 44.5,51C 45.7375,50.7679 46.7375,50.2679 47.5,49.5C 49.1042,48.713 49.7709,47.3797 49.5,45.5 Z" />
    </g>
    <g>
        <path style="opacity:1" fill="#24b2ef"
            d="M 43.5,48.5 C 44.5676,49.4345 45.901,49.7678 47.5,49.5C 46.7375,50.2679 45.7375,50.7679 44.5,51C 45.6105,53.7372 45.7772,56.5706 45,59.5C 43.0257,59.3744 40.859,59.2078 38.5,59C 36.8258,57.4941 35.8258,55.6607 35.5,53.5C 35.5,52.1667 35.5,50.8333 35.5,49.5C 36.6266,50.1217 37.6266,50.955 38.5,52C 40.1796,52.0343 41.6796,52.201 43,52.5C 42.6692,50.9813 42.8359,49.648 43.5,48.5 Z" />
    </g>
    <g>
        <path style="opacity:1" fill="#23a2f0"
            d="M 61.5,52.5 C 64.8726,56.9753 63.8726,59.9753 58.5,61.5C 56.7473,60.4209 55.0806,60.4209 53.5,61.5C 52.5084,61.3284 51.8417,61.6618 51.5,62.5C 50.609,61.8902 49.609,61.5569 48.5,61.5C 48.3259,59.139 47.9926,56.8056 47.5,54.5C 48.9305,54.5792 50.2638,54.2458 51.5,53.5C 52.1667,54.5 52.8333,55.5 53.5,56.5C 58.8743,60.1129 61.541,58.7795 61.5,52.5 Z" />
    </g>
    <g>
        <path style="opacity:1" fill="#2791ef"
            d="M 85.5,44.5 C 85.5,48.5 85.5,52.5 85.5,56.5C 85.1667,56.5 84.8333,56.5 84.5,56.5C 84.6602,54.8008 84.4935,53.1341 84,51.5C 81.1319,54.7359 78.6319,58.2359 76.5,62C 74.1924,62.9907 71.8591,63.824 69.5,64.5C 69.1583,63.6618 68.4916,63.3284 67.5,63.5C 68.4457,59.6646 70.779,58.6646 74.5,60.5C 79.0208,56.7871 82.0208,52.1204 83.5,46.5C 84.1667,45.8333 84.8333,45.1667 85.5,44.5 Z" />
    </g>
    <g>
        <path style="opacity:1" fill="#1db0f0"
            d="M 7.5,51.5 C 10.3013,52.7347 12.9679,54.2347 15.5,56C 19.9542,57.7942 24.1209,58.2942 28,57.5C 28.49,56.2068 28.6567,54.8734 28.5,53.5C 28.5,52.8333 28.5,52.1667 28.5,51.5C 29.1174,51.6107 29.6174,51.944 30,52.5C 30.2904,54.9204 30.7904,57.2537 31.5,59.5C 28.7719,61.2881 25.7719,61.7881 22.5,61C 17.1736,59.3307 12.1736,57.164 7.5,54.5C 7.5,53.8333 7.5,53.1667 7.5,52.5C 7.5,52.1667 7.5,51.8333 7.5,51.5 Z" />
    </g>
    <g>
        <path style="opacity:0.004" fill="#417ce1"
            d="M 85.5,56.5 C 85.8333,56.5 86.1667,56.5 86.5,56.5C 86.7678,58.099 86.4345,59.4324 85.5,60.5C 85.5,59.1667 85.5,57.8333 85.5,56.5 Z" />
    </g>
    <g>
        <path style="opacity:1" fill="#22a9ef"
            d="M 7.5,54.5 C 12.1736,57.164 17.1736,59.3307 22.5,61C 25.7719,61.7881 28.7719,61.2881 31.5,59.5C 31.2941,62.0419 29.9608,63.7086 27.5,64.5C 23.2304,63.1779 18.8971,62.1779 14.5,61.5C 13.1214,59.4031 11.4547,59.0698 9.5,60.5C 9.16667,60.5 8.83333,60.5 8.5,60.5C 8.16667,57.8333 7.83333,57.8333 7.5,60.5C 6.59603,59.791 6.26269,58.791 6.5,57.5C 7.40397,56.791 7.73731,55.791 7.5,54.5 Z" />
    </g>
    <g>
        <path style="opacity:0.012" fill="#2792e5"
            d="M 7.5,60.5 C 7.83333,60.5 8.16667,60.5 8.5,60.5C 8.16667,63.1667 7.83333,63.1667 7.5,60.5 Z" />
    </g>
    <g>
        <path style="opacity:1" fill="#2899f2"
            d="M 83.5,46.5 C 82.0208,52.1204 79.0208,56.7871 74.5,60.5C 70.779,58.6646 68.4457,59.6646 67.5,63.5C 66.4664,64.6871 65.133,65.5204 63.5,66C 60.1832,66.4983 56.8499,66.665 53.5,66.5C 51.8333,66.5 50.1667,66.5 48.5,66.5C 49.853,65.4739 50.853,64.1405 51.5,62.5C 51.8417,61.6618 52.5084,61.3284 53.5,61.5C 53.9175,62.2216 54.5842,62.7216 55.5,63C 58.1667,63.6667 60.8333,63.6667 63.5,63C 64.9947,60.8386 66.828,59.0053 69,57.5C 71.1785,58.5236 73.3451,58.3569 75.5,57C 78.0657,53.3416 80.7324,49.8416 83.5,46.5 Z" />
    </g>
    <g>
        <path style="opacity:0.004" fill="#4679de"
            d="M 84.5,60.5 C 84.8333,60.5 85.1667,60.5 85.5,60.5C 85.6716,61.4916 85.3382,62.1583 84.5,62.5C 84.5,61.8333 84.5,61.1667 84.5,60.5 Z" />
    </g>
    <g>
        <path style="opacity:1" fill="#24a2ec"
            d="M 34.5,46.5 C 35.404,47.209 35.7373,48.209 35.5,49.5C 35.5,50.8333 35.5,52.1667 35.5,53.5C 34.7109,53.7828 34.0442,54.2828 33.5,55C 36.1553,62.3254 41.1553,64.4921 48.5,61.5C 48.5858,62.4959 48.2524,63.3292 47.5,64C 43.7579,65.985 40.0912,65.8184 36.5,63.5C 28.6769,66.5543 21.3435,65.8876 14.5,61.5C 18.8971,62.1779 23.2304,63.1779 27.5,64.5C 29.9608,63.7086 31.2941,62.0419 31.5,59.5C 30.7904,57.2537 30.2904,54.9204 30,52.5C 29.6174,51.944 29.1174,51.6107 28.5,51.5C 27.8902,50.609 27.5569,49.609 27.5,48.5C 29.4024,49.5109 31.4024,49.6776 33.5,49C 34.2524,48.3292 34.5858,47.4959 34.5,46.5 Z" />
    </g>
    <g>
        <path style="opacity:1" fill="#2d92f4"
            d="M 67.5,63.5 C 68.4916,63.3284 69.1583,63.6618 69.5,64.5C 69.0557,66.1132 68.0557,67.2798 66.5,68C 58.936,68.5593 51.6026,70.0593 44.5,72.5C 35.6891,72.9726 27.0224,72.1393 18.5,70C 17.6195,69.2917 16.9528,68.4584 16.5,67.5C 25.6457,71.0814 34.8124,71.7481 44,69.5C 47.4774,69.9976 50.6441,68.9976 53.5,66.5C 56.8499,66.665 60.1832,66.4983 63.5,66C 65.133,65.5204 66.4664,64.6871 67.5,63.5 Z" />
    </g>
    <g>
        <path style="opacity:0.008" fill="#3c6ee5"
            d="M 83.5,62.5 C 83.8333,62.5 84.1667,62.5 84.5,62.5C 84.1667,66.5 83.8333,66.5 83.5,62.5 Z" />
    </g>
    <g>
        <path style="opacity:0.008" fill="#2888e1"
            d="M 9.5,63.5 C 9.5,64.1667 9.5,64.8333 9.5,65.5C 8.16667,64.8333 8.16667,64.1667 9.5,63.5 Z" />
    </g>
    <g>
        <path style="opacity:0.004" fill="#3884dd"
            d="M 9.5,65.5 C 9.83333,65.5 10.1667,65.5 10.5,65.5C 10.1667,68.1667 9.83333,68.1667 9.5,65.5 Z" />
    </g>
    <g>
        <path style="opacity:1" fill="#279ef2"
            d="M 14.5,61.5 C 21.3435,65.8876 28.6769,66.5543 36.5,63.5C 40.0912,65.8184 43.7579,65.985 47.5,64C 48.2524,63.3292 48.5858,62.4959 48.5,61.5C 49.609,61.5569 50.609,61.8902 51.5,62.5C 50.853,64.1405 49.853,65.4739 48.5,66.5C 44.3006,67.7398 40.1339,67.7398 36,66.5C 27.0623,69.1439 18.8956,67.4772 11.5,61.5C 10.7025,61.9569 10.3691,62.6236 10.5,63.5C 10.1667,63.5 9.83333,63.5 9.5,63.5C 9.5,62.5 9.5,61.5 9.5,60.5C 11.4547,59.0698 13.1214,59.4031 14.5,61.5 Z" />
    </g>
    <g>
        <path style="opacity:1" fill="#2a97f3"
            d="M 48.5,66.5 C 50.1667,66.5 51.8333,66.5 53.5,66.5C 50.6441,68.9976 47.4774,69.9976 44,69.5C 34.8124,71.7481 25.6457,71.0814 16.5,67.5C 15.3117,66.6364 14.1451,65.6364 13,64.5C 12.5172,65.448 12.3505,66.448 12.5,67.5C 11.8333,66.8333 11.1667,66.1667 10.5,65.5C 10.5,64.8333 10.5,64.1667 10.5,63.5C 10.3691,62.6236 10.7025,61.9569 11.5,61.5C 18.8956,67.4772 27.0623,69.1439 36,66.5C 40.1339,67.7398 44.3006,67.7398 48.5,66.5 Z" />
    </g>
    <g>
        <path style="opacity:1" fill="#2f8bf3"
            d="M 84.5,56.5 C 84.5,57.8333 84.5,59.1667 84.5,60.5C 84.1667,60.5 83.8333,60.5 83.5,60.5C 83.6495,59.448 83.4828,58.448 83,57.5C 80.933,60.1094 78.7663,62.6094 76.5,65C 73.8883,66.2787 71.5549,67.9453 69.5,70C 61.197,71.4224 52.8637,72.5891 44.5,73.5C 44.5,73.1667 44.5,72.8333 44.5,72.5C 51.6026,70.0593 58.936,68.5593 66.5,68C 68.0557,67.2798 69.0557,66.1132 69.5,64.5C 71.8591,63.824 74.1924,62.9907 76.5,62C 78.6319,58.2359 81.1319,54.7359 84,51.5C 84.4935,53.1341 84.6602,54.8008 84.5,56.5 Z" />
    </g>
    <g>
        <path style="opacity:1" fill="#3285f4"
            d="M 83.5,60.5 C 83.5,61.1667 83.5,61.8333 83.5,62.5C 82.8333,63.5 82.1667,64.5 81.5,65.5C 81.6495,64.448 81.4828,63.448 81,62.5C 80.1959,65.1459 78.6959,67.1459 76.5,68.5C 75.1634,69.3149 74.1634,70.4815 73.5,72C 62.9009,73.1366 52.4009,74.6366 42,76.5C 36.1739,76.3917 30.0073,75.7251 23.5,74.5C 22.8333,73.8333 22.1667,73.1667 21.5,72.5C 26.7831,73.4862 32.1165,74.1529 37.5,74.5C 40.0254,74.4966 42.3587,74.1633 44.5,73.5C 52.8637,72.5891 61.197,71.4224 69.5,70C 71.5549,67.9453 73.8883,66.2787 76.5,65C 78.7663,62.6094 80.933,60.1094 83,57.5C 83.4828,58.448 83.6495,59.448 83.5,60.5 Z" />
    </g>
    <g>
        <path style="opacity:0.012" fill="#4d87f2"
            d="M 83.5,69.5 C 83.369,68.7611 83.5357,68.0944 84,67.5C 84.6917,68.4368 84.525,69.1034 83.5,69.5 Z" />
    </g>
    <g>
        <path style="opacity:0.004" fill="#3076dc"
            d="M 12.5,68.5 C 12.631,69.2389 12.4643,69.9056 12,70.5C 11.3083,69.5632 11.475,68.8966 12.5,68.5 Z" />
    </g>
    <g>
        <path style="opacity:1" fill="#2c88ef"
            d="M 16.5,67.5 C 16.9528,68.4584 17.6195,69.2917 18.5,70C 27.0224,72.1393 35.6891,72.9726 44.5,72.5C 44.5,72.8333 44.5,73.1667 44.5,73.5C 42.3587,74.1633 40.0254,74.4966 37.5,74.5C 32.1165,74.1529 26.7831,73.4862 21.5,72.5C 19.5165,72.6168 17.8498,71.9501 16.5,70.5C 15.8933,70.6236 15.56,70.9569 15.5,71.5C 14.2719,70.6935 13.2719,69.6935 12.5,68.5C 12.5,68.1667 12.5,67.8333 12.5,67.5C 12.3505,66.448 12.5172,65.448 13,64.5C 14.1451,65.6364 15.3117,66.6364 16.5,67.5 Z" />
    </g>
    <g>
        <path style="opacity:1" fill="#3380f5"
            d="M 76.5,68.5 C 76.3185,71.703 74.6518,73.5363 71.5,74C 57.9634,76.9009 44.2968,77.9009 30.5,77C 27.8091,76.8442 25.4758,76.0109 23.5,74.5C 30.0073,75.7251 36.1739,76.3917 42,76.5C 52.4009,74.6366 62.9009,73.1366 73.5,72C 74.1634,70.4815 75.1634,69.3149 76.5,68.5 Z" />
    </g>
    <g>
        <path style="opacity:0.999" fill="#436df7"
            d="M 84.5,74.5 C 85.1667,75.1667 85.8333,75.8333 86.5,76.5C 87.2134,79.5939 88.2134,82.5939 89.5,85.5C 87.9699,84.7888 86.6366,83.7888 85.5,82.5C 85.9816,78.4785 84.1482,76.4785 80,76.5C 76.3546,78.5764 72.5213,78.9097 68.5,77.5C 68.8333,76.8333 69.1667,76.1667 69.5,75.5C 72.995,74.8892 76.3284,73.8892 79.5,72.5C 81.5139,72.4365 83.1806,73.1032 84.5,74.5 Z" />
    </g>
    <g>
        <path style="opacity:0.999" fill="#3577f1"
            d="M 81.5,65.5 C 81.6596,67.153 82.3263,68.4863 83.5,69.5C 83.6287,71.2161 83.962,72.8828 84.5,74.5C 83.1806,73.1032 81.5139,72.4365 79.5,72.5C 76.3284,73.8892 72.995,74.8892 69.5,75.5C 57.8839,77.5769 46.2172,79.2435 34.5,80.5C 31.4273,79.6502 28.4273,78.6502 25.5,77.5C 24.5041,77.5858 23.6708,77.2524 23,76.5C 22.5357,77.0944 22.369,77.7611 22.5,78.5C 21.8333,78.1667 21.1667,77.8333 20.5,77.5C 20.5,76.8333 20.1667,76.5 19.5,76.5C 19.5,75.8333 19.1667,75.5 18.5,75.5C 18.5,74.8333 18.1667,74.5 17.5,74.5C 17.5,73.8333 17.1667,73.5 16.5,73.5C 16.5,72.8333 16.1667,72.5 15.5,72.5C 15.5,72.1667 15.5,71.8333 15.5,71.5C 15.56,70.9569 15.8933,70.6236 16.5,70.5C 17.8498,71.9501 19.5165,72.6168 21.5,72.5C 22.1667,73.1667 22.8333,73.8333 23.5,74.5C 25.4758,76.0109 27.8091,76.8442 30.5,77C 44.2968,77.9009 57.9634,76.9009 71.5,74C 74.6518,73.5363 76.3185,71.703 76.5,68.5C 78.6959,67.1459 80.1959,65.1459 81,62.5C 81.4828,63.448 81.6495,64.448 81.5,65.5 Z" />
    </g>
    <g>
        <path style="opacity:0.004" fill="#3465d7"
            d="M 15.5,72.5 C 16.1667,72.5 16.5,72.8333 16.5,73.5C 17.1667,73.5 17.5,73.8333 17.5,74.5C 18.1667,74.5 18.5,74.8333 18.5,75.5C 19.1667,75.5 19.5,75.8333 19.5,76.5C 20.1667,76.5 20.5,76.8333 20.5,77.5C 20.1034,78.525 19.4368,78.6917 18.5,78C 17.3333,76.8333 16.1667,75.6667 15,74.5C 14.3083,73.5632 14.475,72.8966 15.5,72.5 Z" />
    </g>
    <g>
        <path style="opacity:0.998" fill="#3471f3"
            d="M 69.5,75.5 C 69.1667,76.1667 68.8333,76.8333 68.5,77.5C 68.1667,77.5 67.8333,77.5 67.5,77.5C 55.9369,79.6897 44.2702,81.0231 32.5,81.5C 29.6689,80.9213 27.3356,79.588 25.5,77.5C 28.4273,78.6502 31.4273,79.6502 34.5,80.5C 46.2172,79.2435 57.8839,77.5769 69.5,75.5 Z" />
    </g>
    <g>
        <path style="opacity:0.008" fill="#577ffb"
            d="M 86.5,76.5 C 86.369,75.7611 86.5357,75.0944 87,74.5C 87.6917,75.4368 87.525,76.1034 86.5,76.5 Z" />
    </g>
    <g>
        <path style="opacity:0.997" fill="#3f6af0"
            d="M 67.5,77.5 C 67.0825,78.2216 66.4158,78.7216 65.5,79C 66.7375,79.2321 67.7375,79.7321 68.5,80.5C 66.847,80.6596 65.5137,81.3263 64.5,82.5C 63.5084,82.3284 62.8417,82.6618 62.5,83.5C 62.1667,83.5 61.8333,83.5 61.5,83.5C 61.719,82.325 61.3857,81.325 60.5,80.5C 51.6026,82.2144 42.6026,82.8811 33.5,82.5C 32.8333,82.5 32.5,82.1667 32.5,81.5C 44.2702,81.0231 55.9369,79.6897 67.5,77.5 Z" />
    </g>
    <g>
        <path style="opacity:1" fill="#455ad9"
            d="M 25.5,77.5 C 27.3356,79.588 29.6689,80.9213 32.5,81.5C 32.5,82.1667 32.8333,82.5 33.5,82.5C 34.2625,83.2679 35.2625,83.7679 36.5,84C 42.8246,84.4995 49.1579,84.6662 55.5,84.5C 55.5,84.8333 55.5,85.1667 55.5,85.5C 48.494,86.7242 41.494,86.7242 34.5,85.5C 33.2196,84.0687 31.5529,83.4021 29.5,83.5C 26.9906,82.0787 24.6572,80.4121 22.5,78.5C 22.369,77.7611 22.5357,77.0944 23,76.5C 23.6708,77.2524 24.5041,77.5858 25.5,77.5 Z" />
    </g>
    <g>
        <path style="opacity:0.991" fill="#3a56f0"
            d="M 85.5,82.5 C 83.8002,82.6261 82.3002,83.2927 81,84.5C 79.5349,83.6705 78.0349,83.5038 76.5,84C 77.056,84.3826 77.3893,84.8826 77.5,85.5C 74.2402,84.2262 71.2402,82.5595 68.5,80.5C 67.7375,79.7321 66.7375,79.2321 65.5,79C 66.4158,78.7216 67.0825,78.2216 67.5,77.5C 67.8333,77.5 68.1667,77.5 68.5,77.5C 72.5213,78.9097 76.3546,78.5764 80,76.5C 84.1482,76.4785 85.9816,78.4785 85.5,82.5 Z" />
    </g>
    <g>
        <path style="opacity:1" fill="#3659ea"
            d="M 61.5,83.5 C 60.5084,83.3284 59.8417,83.6618 59.5,84.5C 58.1667,84.5 56.8333,84.5 55.5,84.5C 49.1579,84.6662 42.8246,84.4995 36.5,84C 35.2625,83.7679 34.2625,83.2679 33.5,82.5C 42.6026,82.8811 51.6026,82.2144 60.5,80.5C 61.3857,81.325 61.719,82.325 61.5,83.5 Z" />
    </g>
    <g>
        <path style="opacity:0.016" fill="#4257e0" d="M 64.5,82.5 C 65.8333,83.1667 65.8333,83.1667 64.5,82.5 Z" />
    </g>
    <g>
        <path style="opacity:0.008" fill="#2c52db"
            d="M 29.5,83.5 C 29.1034,84.525 28.4368,84.6917 27.5,84C 28.0944,83.5357 28.7611,83.369 29.5,83.5 Z" />
    </g>
    <g>
        <path style="opacity:0.004" fill="#4b5bdd"
            d="M 62.5,83.5 C 63.1667,83.5 63.8333,83.5 64.5,83.5C 63.8333,84.8333 63.1667,84.8333 62.5,83.5 Z" />
    </g>
    <g>
        <path style="opacity:0.008" fill="#4558de"
            d="M 59.5,85.5 C 59.5,85.1667 59.5,84.8333 59.5,84.5C 62.1667,84.8333 62.1667,85.1667 59.5,85.5 Z" />
    </g>
    <g>
        <path style="opacity:0.016" fill="#3250db"
            d="M 34.5,85.5 C 34.1034,86.525 33.4368,86.6917 32.5,86C 33.0944,85.5357 33.7611,85.369 34.5,85.5 Z" />
    </g>
    <g>
        <path style="opacity:0.004" fill="#4355e0"
            d="M 55.5,86.5 C 55.5,86.1667 55.5,85.8333 55.5,85.5C 56.8333,85.5 58.1667,85.5 59.5,85.5C 58.4324,86.4345 57.099,86.7678 55.5,86.5 Z" />
    </g>
    <g>
        <path style="opacity:0.991" fill="#4644f6"
            d="M 85.5,82.5 C 86.6366,83.7888 87.9699,84.7888 89.5,85.5C 90.1098,86.391 90.4431,87.391 90.5,88.5C 89.5,89.5 88.5,90.5 87.5,91.5C 87.1667,91.5 86.8333,91.5 86.5,91.5C 84.8185,89.9925 82.8185,88.9925 80.5,88.5C 79.6935,87.2719 78.6935,86.2719 77.5,85.5C 77.3893,84.8826 77.056,84.3826 76.5,84C 78.0349,83.5038 79.5349,83.6705 81,84.5C 82.3002,83.2927 83.8002,82.6261 85.5,82.5 Z" />
    </g>
    <g>
        <path style="opacity:0.004" fill="#2d4ee4"
            d="M 35.5,87.5 C 36.9464,86.3871 38.6131,86.2204 40.5,87C 38.8659,87.4935 37.1992,87.6602 35.5,87.5 Z" />
    </g>
    <g>
        <path style="opacity:0.007" fill="#3951e4"
            d="M 55.5,86.5 C 53.3718,87.6291 51.0385,87.7958 48.5,87C 50.8098,86.5034 53.1432,86.3367 55.5,86.5 Z" />
    </g>
    <g>
        <path style="opacity:0.008" fill="#4d52fa"
            d="M 91.5,88.5 C 91.369,87.7611 91.5357,87.0944 92,86.5C 92.6917,87.4368 92.525,88.1034 91.5,88.5 Z" />
    </g>
    <g>
        <path style="opacity:0.012" fill="#3d3ceb" d="M 80.5,88.5 C 79.8333,89.1667 79.8333,89.1667 80.5,88.5 Z" />
    </g>
    <g>
        <path style="opacity:0.004" fill="#4945f4"
            d="M 90.5,88.5 C 90.8333,88.5 91.1667,88.5 91.5,88.5C 91.1667,91.1667 90.8333,91.1667 90.5,88.5 Z" />
    </g>
    <g>
        <path style="opacity:0.012" fill="#3d35f4"
            d="M 86.5,91.5 C 86.1034,92.525 85.4368,92.6917 84.5,92C 85.0944,91.5357 85.7611,91.369 86.5,91.5 Z" />
    </g>
    <g>
        <path style="opacity:0.004" fill="#4844f4"
            d="M 87.5,91.5 C 88.2389,91.369 88.9056,91.5357 89.5,92C 88.5632,92.6917 87.8966,92.525 87.5,91.5 Z" />
    </g>
</svg>