<svg xmlns="http://www.w3.org/2000/svg" version="1.1" width="48px" height="48px"
    style="shape-rendering:geometricPrecision; text-rendering:geometricPrecision; image-rendering:optimizeQuality; fill-rule:evenodd; clip-rule:evenodd"
    xmlns:xlink="http://www.w3.org/1999/xlink">
    <g>
        <path style="opacity:0.976" fill="#1565c0"
            d="M 37.5,29.5 C 37.666,24.1563 37.4994,18.8229 37,13.5C 36.6924,12.6919 36.1924,12.0253 35.5,11.5C 26.888,10.5289 18.2214,10.1956 9.5,10.5C 9.17798,8.27759 9.84464,6.44425 11.5,5C 21.1667,4.33333 30.8333,4.33333 40.5,5C 41,5.5 41.5,6 42,6.5C 42.6667,13.5 42.6667,20.5 42,27.5C 40.8904,29.0368 39.3904,29.7035 37.5,29.5 Z" />
    </g>
    <g>
        <path style="opacity:0.993" fill="#2095f2"
            d="M 9.5,10.5 C 18.2214,10.1956 26.888,10.5289 35.5,11.5C 36.1924,12.0253 36.6924,12.6919 37,13.5C 37.4994,18.8229 37.666,24.1563 37.5,29.5C 37.822,31.7224 37.1554,33.5557 35.5,35C 27.5,35.3333 19.5,35.6667 11.5,36C 9.33333,38.1667 7.16667,40.3333 5,42.5C 4.33333,32.5 4.33333,22.5 5,12.5C 6.10963,10.9632 7.60963,10.2965 9.5,10.5 Z" />
    </g>
</svg>